External Loads File
version=1
nRows=70
nColumns=13
Range=5.000000e-03-10 seconds
endheader
time 	forceRightX 	forceRightY 	forceRightZ 	pointRightX 	pointRightY 	pointRightZ 	forceLeftX 	forceLeftY 	forceLeftZ 	pointLeftX 	pointLeftY 	pointLeftZ 		
7.505000 -44.127835 -154.654815 -0.000000 0.186948 0.268473 -0.190535 -79.103056 466.187225 -0.000000 0.478243 0.377051 -0.445033
7.510000 -53.448036 -151.647474 -0.000000 0.184804 0.277998 -0.190672 -86.486513 488.586165 -0.000000 0.480648 0.366501 -0.445199
7.515000 -60.224040 -143.764667 -0.000000 0.183247 0.287837 -0.190751 -93.324991 508.819905 -0.000000 0.482615 0.355714 -0.445140
7.520000 -63.905426 -132.429641 -0.000000 0.182214 0.297833 -0.190877 -100.284999 527.905534 -0.000000 0.484140 0.344978 -0.445117
7.525000 -64.652530 -119.022908 -0.000000 0.181772 0.308183 -0.190927 -106.585994 547.251347 -0.000000 0.485076 0.334029 -0.445153
7.530000 -62.685411 -104.883815 -0.000000 0.181974 0.318777 -0.191096 -112.071071 567.974446 -0.000000 0.485588 0.322938 -0.445377
7.535000 -58.465264 -91.039369 -0.000000 0.182746 0.329553 -0.191284 -116.299763 590.835031 -0.000000 0.485466 0.311806 -0.445267
7.540000 -52.527254 -78.169135 -0.000000 0.184125 0.340324 -0.191433 -119.127345 616.092784 -0.000000 0.484776 0.300822 -0.444978
7.545000 -45.587972 -66.519412 -0.000000 0.186035 0.351258 -0.191796 -119.519908 643.883545 -0.000000 0.483470 0.289958 -0.444886
7.550000 -38.179682 -56.223079 -0.000000 0.188456 0.362001 -0.192042 -117.939714 673.946092 -0.000000 0.481406 0.279296 -0.444765
7.555000 -30.886859 -47.216242 -0.000000 0.191521 0.372714 -0.192369 -113.860532 706.185707 -0.000000 0.478733 0.268820 -0.444623
7.560000 -24.138316 -39.438401 -0.000000 0.195203 0.383310 -0.192720 -107.337177 740.354111 -0.000000 0.475476 0.258477 -0.444513
7.565000 -18.271606 -32.826059 -0.000000 0.199416 0.393723 -0.193029 -98.654579 776.082385 -0.000000 0.471630 0.248303 -0.444414
7.570000 -13.548832 -27.301366 -0.000000 0.204239 0.403956 -0.193416 -88.008638 812.902047 -0.000000 0.467145 0.238502 -0.444232
7.575000 -10.146699 -22.784299 -0.000000 0.209692 0.413858 -0.193801 -75.688605 850.227046 -0.000000 0.462133 0.229102 -0.443959
7.580000 -8.201125 -19.193059 -0.000000 0.215683 0.423419 -0.194137 -61.275123 887.473933 -0.000000 0.456446 0.220047 -0.443872
7.585000 -7.773580 -16.447314 -0.000000 0.222209 0.432732 -0.194499 -44.947922 923.958810 -0.000000 0.450353 0.211385 -0.443606
7.590000 -8.855568 -14.437335 -0.000000 0.229215 0.441871 -0.194902 -26.512181 958.966842 -0.000000 0.443758 0.203144 -0.443323
7.595000 -11.321611 -13.057357 -0.000000 0.236627 0.449977 -0.195334 -7.937552 991.664310 -0.000000 0.436650 0.195460 -0.443068
7.600000 -15.041501 -12.158168 -0.000000 0.244481 0.457657 -0.195753 12.723033 1021.214509 -0.000000 0.429140 0.187970 -0.442864
7.605000 -19.804288 -11.633412 -0.000000 0.252434 0.464885 -0.196505 33.499174 1046.652923 -0.000000 0.421275 0.181182 -0.442695
7.610000 -25.483836 -11.229058 -0.000000 0.262331 0.471670 -0.195347 60.152350 1066.747210 -0.000000 0.413040 0.174746 -0.442525
7.615000 -31.782112 -11.042989 -0.000000 0.270513 0.477983 -0.196629 82.271923 1081.091687 -0.000000 0.404283 0.168931 -0.442461
7.620000 -38.574839 -10.788908 -0.000000 0.279778 0.483554 -0.197056 106.133236 1088.660023 -0.000000 0.395452 0.163493 -0.442380
7.625000 -45.632702 -10.308861 -0.000000 0.289211 0.488475 -0.197425 129.970034 1088.915262 -0.000000 0.386061 0.158855 -0.441793
7.630000 -52.708572 -9.341643 -0.000000 0.299293 0.492991 -0.197876 153.534261 1081.265252 -0.000000 0.376751 0.154718 -0.441573
7.635000 -59.472914 -7.829106 -0.000000 0.308542 0.496681 -0.198076 172.013464 1065.920362 -0.000000 0.367374 0.151108 -0.441492
7.640000 -65.636305 -5.294130 -0.000000 0.318333 0.499618 -0.198333 189.467590 1041.993813 -0.000000 0.357899 0.148127 -0.441592
7.645000 -70.852793 -1.629283 -0.000000 0.328188 0.501761 -0.198517 204.097736 1009.630119 -0.000000 0.348372 0.145776 -0.441653
7.650000 -74.814601 3.172432 -0.000000 0.337872 0.503371 -0.198548 214.810594 969.120656 -0.000000 0.338901 0.144046 -0.441673
7.655000 -77.273218 9.119778 -0.000000 0.347565 0.504063 -0.198551 222.029450 920.611814 -0.000000 0.329466 0.142754 -0.441839
7.660000 -78.067550 16.119728 -0.000000 0.357273 0.504072 -0.198352 225.665478 864.494613 -0.000000 0.320079 0.142025 -0.442084
7.665000 -77.176797 23.954382 -0.000000 0.366656 0.504183 -0.198117 224.465219 801.671709 -0.000000 0.310849 0.142051 -0.442544
7.670000 -74.653881 32.638597 -0.000000 0.375857 0.503246 -0.198130 219.235795 732.803023 -0.000000 0.301761 0.142713 -0.442896
7.675000 -70.681534 42.169491 -0.000000 0.384799 0.501857 -0.198126 209.710178 659.270982 -0.000000 0.292945 0.144246 -0.443314
7.680000 -65.589792 52.638244 -0.000000 0.393037 0.499577 -0.197686 195.743266 582.978776 -0.000000 0.284392 0.146392 -0.443813
7.685000 -59.746191 64.400293 -0.000000 0.400885 0.496512 -0.197450 178.525571 505.836179 -0.000000 0.276111 0.148902 -0.444245
7.690000 -53.439133 78.031501 -0.000000 0.408661 0.492660 -0.196907 159.843322 429.716085 -0.000000 0.268025 0.152715 -0.444727
7.695000 -47.190830 93.977897 -0.000000 0.415868 0.488071 -0.196553 139.688889 357.073761 -0.000000 0.260097 0.156986 -0.445175
7.700000 -41.335279 112.807001 -0.000000 0.422665 0.482920 -0.196190 119.341905 289.600846 -0.000000 0.252428 0.162067 -0.445543
7.705000 -36.081960 134.940964 -0.000000 0.429016 0.476762 -0.195929 99.981967 228.531517 -0.000000 0.244885 0.167715 -0.445678
7.710000 -31.633470 160.533416 -0.000000 0.435055 0.469943 -0.195851 82.378483 174.692750 -0.000000 0.237666 0.174064 -0.445854
7.715000 -28.177130 189.473841 -0.000000 0.440550 0.462635 -0.195626 67.163264 128.332469 -0.000000 0.230651 0.180973 -0.445857
7.720000 -25.669340 221.422258 -0.000000 0.445658 0.454761 -0.195088 54.948994 89.028458 -0.000000 0.223938 0.188441 -0.445929
7.725000 -23.386732 255.817612 -0.000000 0.450477 0.445447 -0.194154 46.113016 55.801166 -0.000000 0.217379 0.196575 -0.445959
7.730000 -21.844154 291.689244 -0.000000 0.455023 0.436097 -0.193107 40.176148 27.704796 -0.000000 0.211216 0.205352 -0.445996
7.735000 -21.145017 327.931560 -0.000000 0.459281 0.426657 -0.192278 36.603349 3.647287 -0.000000 0.205548 0.214610 -0.445973
7.740000 -21.243433 363.389157 -0.000000 0.463246 0.417090 -0.191681 34.598741 -17.184583 -0.000000 0.200382 0.224349 -0.445866
7.745000 -22.132564 397.014804 -0.000000 0.466962 0.407267 -0.192024 33.286816 -35.133648 -0.000000 0.195838 0.234430 -0.445787
7.750000 -23.635903 427.985328 -0.000000 0.470532 0.396949 -0.192947 31.901042 -50.100108 -0.000000 0.191873 0.244586 -0.445677
7.755000 -25.709764 455.693890 -0.000000 0.473669 0.386245 -0.193123 29.953293 -61.675366 -0.000000 0.188592 0.254990 -0.445583
7.760000 -28.991196 479.702418 -0.000000 0.476171 0.375526 -0.192885 27.416267 -69.355555 -0.000000 0.186013 0.265363 -0.445437
7.765000 -33.006502 499.861923 -0.000000 0.478470 0.364735 -0.193242 24.491992 -72.922696 -0.000000 0.184168 0.275583 -0.445254
7.770000 -37.189237 516.304215 -0.000000 0.480349 0.353968 -0.193672 21.652238 -72.582185 -0.000000 0.182840 0.285884 -0.445190
7.775000 -40.987353 529.434913 -0.000000 0.481656 0.342986 -0.193631 19.440505 -69.021883 -0.000000 0.182209 0.296194 -0.445105
7.780000 -43.664869 539.875420 -0.000000 0.482470 0.331792 -0.193351 18.194577 -63.286862 -0.000000 0.182284 0.306679 -0.445080
7.785000 -45.646105 548.218926 -0.000000 0.482779 0.320755 -0.193397 18.108239 -56.489442 -0.000000 0.182802 0.317246 -0.444940
7.790000 -46.762648 555.035066 -0.000000 0.482650 0.310040 -0.193403 19.045631 -49.622909 -0.000000 0.184032 0.327983 -0.444851
7.795000 -46.728840 560.777483 -0.000000 0.481795 0.299577 -0.193415 20.673672 -43.376852 -0.000000 0.185808 0.338741 -0.444702
7.800000 -44.575617 565.820805 -0.000000 0.480411 0.289126 -0.193456 22.499559 -38.118884 -0.000000 0.188172 0.349611 -0.444489
7.805000 -40.456130 570.298338 -0.000000 0.478396 0.278821 -0.193378 24.132863 -33.895146 -0.000000 0.191144 0.360471 -0.444209
7.810000 -34.090818 574.223179 -0.000000 0.475615 0.268786 -0.193648 25.253299 -30.610610 -0.000000 0.194716 0.371427 -0.443947
7.815000 -26.403226 577.423533 -0.000000 0.472346 0.258999 -0.193607 25.688846 -28.059049 -0.000000 0.198799 0.382002 -0.443612
7.820000 -16.845946 579.805642 -0.000000 0.468517 0.249445 -0.193740 25.228992 -26.073802 -0.000000 0.203386 0.392470 -0.443186
7.825000 -5.801580 581.288816 -0.000000 0.464042 0.240114 -0.193694 23.796786 -24.454478 -0.000000 0.208558 0.402545 -0.442816
7.830000 6.500294 581.858880 -0.000000 0.458981 0.231174 -0.193544 21.444325 -23.071887 -0.000000 0.214199 0.412413 -0.442371
7.835000 19.759607 581.494915 -0.000000 0.453387 0.222582 -0.193517 18.324229 -21.868082 -0.000000 0.220457 0.421827 -0.442012
7.840000 33.570253 580.136363 -0.000000 0.447265 0.214404 -0.193358 14.583634 -20.786132 -0.000000 0.227126 0.430782 -0.441662
7.845000 48.045250 577.622685 -0.000000 0.440705 0.206614 -0.193195 10.278348 -19.701667 -0.000000 0.234338 0.439353 -0.441323
7.850000 62.780501 573.742032 -0.000000 0.433711 0.199219 -0.193052 5.459257 -18.386650 -0.000000 0.242073 0.447329 -0.441102
